<svg xmlns="http://www.w3.org/2000/svg" width="13.662" height="13.65" viewBox="0 0 13.662 13.65">
  <path id="Path_17771" data-name="Path 17771" d="M80.751,12.993l-.579-.008L80,12.954c-.131-.025-.271-.05-.4-.083a7.979,7.979,0,0,1-2.391-1.1A19.708,19.708,0,0,1,73.9,9.015h0a20.069,20.069,0,0,1-2.524-3A8.325,8.325,0,0,1,70.149,3.5c-.045-.163-.075-.325-.1-.481-.013-.067-.025-.131-.038-.2L70,2.739V2.271l.032-.076A3.741,3.741,0,0,1,71.041.883c.281-.263.578-.5.857-.724A1.361,1.361,0,0,1,73.11-.1a1.075,1.075,0,0,1,.657.466l.36.543c.376.573.763,1.164,1.158,1.736A1.387,1.387,0,0,1,75.4,4.087c-.07.154-.15.3-.227.434l-.1.177c-.074.131-.146.263-.222.394l.247.3c.222.263.453.545.69.8h0A17.715,17.715,0,0,0,77.9,8.158c.279-.162.57-.325.889-.5h0a1.481,1.481,0,0,1,1.067-.185,1.129,1.129,0,0,1,.365.155q1.221.8,2.435,1.612a1.217,1.217,0,0,1,.415,1.4,1.286,1.286,0,0,1-.179.364A7.854,7.854,0,0,1,81.395,12.6a2.736,2.736,0,0,1-.394.247l-.147.081Zm-.459-.842h.234l.071-.038a2.038,2.038,0,0,0,.279-.171,7.058,7.058,0,0,0,1.331-1.432.493.493,0,0,0,.058-.131.4.4,0,0,0-.081-.438q-1.213-.808-2.429-1.608a.3.3,0,0,0-.091-.038.669.669,0,0,0-.48.1c-.353.191-.67.369-.968.545a.615.615,0,0,1-.728-.042A18.236,18.236,0,0,1,75.17,6.756c-.254-.272-.491-.558-.721-.836-.122-.143-.246-.285-.361-.427a.564.564,0,0,1-.051-.692c.1-.171.2-.344.3-.516l.1-.183c.072-.131.139-.247.193-.367h0a.553.553,0,0,0-.038-.616c-.394-.579-.788-1.176-1.168-1.751L73.07.83a.239.239,0,0,0-.159-.11.525.525,0,0,0-.486.1c-.263.214-.551.444-.812.686a3.136,3.136,0,0,0-.773.938V2.7c.012.056.022.113.033.169.028.147.054.285.089.417a7.566,7.566,0,0,0,1.11,2.266h0A19.252,19.252,0,0,0,74.494,8.42a18.949,18.949,0,0,0,3.172,2.645,7.144,7.144,0,0,0,2.139.989c.116.029.234.05.352.071Z" transform="translate(-69.748 0.406)" fill="#fff" stroke="#fff" stroke-width="0.5"/>
</svg>
