<svg width="16" height="17" viewBox="0 0 16 17" fill="none" xmlns="http://www.w3.org/2000/svg">
<path d="M14.5449 14.3193H13.3863V3.46303C13.3861 3.38197 13.3586 3.30334 13.3082 3.23986C13.2578 3.17639 13.1874 3.13178 13.1085 3.11327L6.97686 1.67379C6.92422 1.66042 6.86919 1.65956 6.81617 1.67129C6.76315 1.68302 6.71361 1.70702 6.67154 1.74135C6.62891 1.77501 6.59445 1.81789 6.57075 1.86676C6.54704 1.91563 6.5347 1.96923 6.53466 2.02355V4.54919H3.10596C3.05869 4.54919 3.01188 4.5585 2.9682 4.57659C2.92453 4.59468 2.88484 4.6212 2.85141 4.65463C2.81799 4.68805 2.79147 4.72774 2.77338 4.77141C2.75529 4.81509 2.74598 4.8619 2.74598 4.90917V14.3193H1.59138C1.54307 14.3176 1.49491 14.3257 1.44978 14.343C1.40465 14.3603 1.36347 14.3865 1.3287 14.4201C1.29392 14.4537 1.26626 14.4939 1.24737 14.5384C1.22849 14.5829 1.21875 14.6307 1.21875 14.6791C1.21875 14.7274 1.22849 14.7753 1.24737 14.8197C1.26626 14.8642 1.29392 14.9045 1.3287 14.938C1.36347 14.9716 1.40465 14.9979 1.44978 15.0152C1.49491 15.0325 1.54307 15.0405 1.59138 15.0388H14.5449C14.5932 15.0405 14.6413 15.0325 14.6865 15.0152C14.7316 14.9979 14.7728 14.9716 14.8076 14.938C14.8423 14.9045 14.87 14.8642 14.8889 14.8197C14.9078 14.7753 14.9175 14.7274 14.9175 14.6791C14.9175 14.6307 14.9078 14.5829 14.8889 14.5384C14.87 14.4939 14.8423 14.4537 14.8076 14.4201C14.7728 14.3865 14.7316 14.3603 14.6865 14.343C14.6413 14.3257 14.5932 14.3176 14.5449 14.3193ZM7.25462 2.47775L12.6663 3.74568V14.3193H9.60249V4.90739C9.60249 4.81192 9.56456 4.72036 9.49705 4.65285C9.42954 4.58534 9.33798 4.54741 9.24251 4.54741H7.25462V2.47775ZM3.46594 5.26693H8.88253V14.3193H3.46594V5.26693Z" fill="#F2F2F2"/>
</svg>
