<svg width="10" height="16" viewBox="0 0 10 16" fill="none" xmlns="http://www.w3.org/2000/svg">
<path d="M7.9794 1.02246H2.39823C1.98389 1.02246 1.58651 1.18706 1.29352 1.48005C1.00054 1.77303 0.835938 2.17041 0.835938 2.58476V13.5532C0.835937 13.9675 1.00054 14.3649 1.29352 14.6579C1.58651 14.9508 1.98389 15.1154 2.39823 15.1154H7.9794C8.39375 15.1154 8.79112 14.9508 9.08411 14.6579C9.3771 14.3649 9.5417 13.9675 9.5417 13.5532V2.58476C9.5417 2.17041 9.3771 1.77303 9.08411 1.48005C8.79112 1.18706 8.39375 1.02246 7.9794 1.02246ZM8.37806 13.5532C8.37806 13.6589 8.33605 13.7603 8.26129 13.835C8.18653 13.9098 8.08513 13.9518 7.9794 13.9518H2.39823C2.2925 13.9518 2.1911 13.9098 2.11634 13.835C2.04158 13.7603 1.99958 13.6589 1.99958 13.5532V2.58476C1.99958 2.47903 2.04158 2.37763 2.11634 2.30287C2.1911 2.2281 2.2925 2.1861 2.39823 2.1861H7.9794C8.08513 2.1861 8.18653 2.2281 8.26129 2.30287C8.33605 2.37763 8.37806 2.47903 8.37806 2.58476V13.5532Z" fill="#F2F2F2" stroke="#565656" stroke-width="0.5"/>
<path d="M5.72567 12.3359H4.64823C4.49392 12.3359 4.34593 12.3802 4.23682 12.4589C4.1277 12.5377 4.06641 12.6445 4.06641 12.7558C4.06641 12.8672 4.1277 12.974 4.23682 13.0528C4.34593 13.1315 4.49392 13.1757 4.64823 13.1757H5.72567C5.87998 13.1757 6.02797 13.1315 6.13708 13.0528C6.24619 12.974 6.30749 12.8672 6.30749 12.7558C6.30749 12.6445 6.24619 12.5377 6.13708 12.4589C6.02797 12.3802 5.87998 12.3359 5.72567 12.3359Z" fill="#F2F2F2"/>
</svg>
