<svg width="16" height="16" viewBox="0 0 16 16" fill="none" xmlns="http://www.w3.org/2000/svg">
<g clip-path="url(#clip0_12800_74)">
<path d="M7.0746 0.761719H0.70479C0.672639 0.761719 0.640802 0.768052 0.611098 0.780356C0.581394 0.79266 0.554404 0.810692 0.531669 0.833427C0.508935 0.856162 0.4909 0.883151 0.478596 0.912856C0.466292 0.94256 0.459961 0.974396 0.459961 1.00655V7.37636C0.459961 7.44129 0.485755 7.50357 0.531669 7.54948C0.577584 7.5954 0.639857 7.62119 0.70479 7.62119H7.0746C7.13953 7.62119 7.20181 7.5954 7.24772 7.54948C7.29364 7.50357 7.31943 7.44129 7.31943 7.37636V1.00655C7.31943 0.974396 7.3131 0.94256 7.3008 0.912856C7.28849 0.883151 7.27046 0.856162 7.24772 0.833427C7.22499 0.810692 7.198 0.79266 7.16829 0.780356C7.13859 0.768052 7.10675 0.761719 7.0746 0.761719ZM6.82977 7.13153H0.95113V1.25168H6.82977V7.13153Z" stroke="white" stroke-width="0.5"/>
<path d="M15.0766 0.761719H8.70674C8.67459 0.761719 8.64276 0.768052 8.61305 0.780356C8.58335 0.79266 8.55636 0.810692 8.53362 0.833427C8.51089 0.856162 8.49285 0.883151 8.48055 0.912856C8.46825 0.94256 8.46191 0.974396 8.46191 1.00655V7.37636C8.46191 7.44129 8.48771 7.50357 8.53362 7.54948C8.57954 7.5954 8.64181 7.62119 8.70674 7.62119H15.0766C15.1415 7.62119 15.2038 7.5954 15.2497 7.54948C15.2956 7.50357 15.3214 7.44129 15.3214 7.37636V1.00655C15.3214 0.974396 15.3151 0.94256 15.3027 0.912856C15.2904 0.883151 15.2724 0.856162 15.2497 0.833427C15.2269 0.810692 15.2 0.79266 15.1702 0.780356C15.1405 0.768052 15.1087 0.761719 15.0766 0.761719ZM14.8317 7.13153H8.95308V1.25168H14.8317V7.13153Z" fill="#F2F2F2" stroke="#F2F2F2" stroke-width="0.5"/>
<path d="M15.0766 8.7627H8.70674C8.67459 8.7627 8.64276 8.76903 8.61305 8.78133C8.58335 8.79364 8.55636 8.81167 8.53362 8.8344C8.51089 8.85714 8.49285 8.88413 8.48055 8.91383C8.46825 8.94354 8.46191 8.97537 8.46191 9.00752V15.3773C8.46191 15.4423 8.48771 15.5045 8.53362 15.5505C8.57954 15.5964 8.64181 15.6222 8.70674 15.6222H15.0766C15.1415 15.6222 15.2038 15.5964 15.2497 15.5505C15.2956 15.5045 15.3214 15.4423 15.3214 15.3773V9.00752C15.3214 8.97537 15.3151 8.94354 15.3027 8.91383C15.2904 8.88413 15.2724 8.85714 15.2497 8.8344C15.2269 8.81167 15.2 8.79364 15.1702 8.78133C15.1405 8.76903 15.1087 8.7627 15.0766 8.7627ZM14.8317 15.1325H8.95308V9.25266H14.8317V15.1325Z" stroke="white" stroke-width="0.5"/>
<path d="M7.0746 8.7627H0.70479C0.672639 8.7627 0.640802 8.76903 0.611098 8.78133C0.581394 8.79364 0.554404 8.81167 0.531669 8.8344C0.508935 8.85714 0.4909 8.88413 0.478596 8.91383C0.466292 8.94354 0.459961 8.97537 0.459961 9.00752V15.3773C0.459961 15.4423 0.485755 15.5045 0.531669 15.5505C0.577584 15.5964 0.639857 15.6222 0.70479 15.6222H7.0746C7.13953 15.6222 7.20181 15.5964 7.24772 15.5505C7.29364 15.5045 7.31943 15.4423 7.31943 15.3773V9.00752C7.31943 8.97537 7.3131 8.94354 7.3008 8.91383C7.28849 8.88413 7.27046 8.85714 7.24772 8.8344C7.22499 8.81167 7.198 8.79364 7.16829 8.78133C7.13859 8.76903 7.10675 8.7627 7.0746 8.7627ZM6.82977 15.1325H0.95113V9.25266H6.82977V15.1325Z" stroke="white" stroke-width="0.5"/>
</g>
<defs>
<clipPath id="clip0_12800_74">
<rect width="15.3962" height="16" fill="white"/>
</clipPath>
</defs>
</svg>
